Coordinates
version=1
nRows=65
nColumns=12
inDegrees=yes

Units are S.I. units (second, meters, Newtons, ...)
Angles are in degrees

endheader
time	SC_y	SC_z	SC_x	AC_y	AC_z	AC_x	GH_y	GH_z	GH_yy	EL_x	PS_y
       0.0              -12.97          16.42          5.509           68.2           9.32         -17.01          46.92          36.55          72.38          17.91          140.9
  0.004311              -12.97          16.42          5.512          68.19          9.316         -17.01           46.9          36.55          72.36          17.93          140.9
  0.008622              -12.97          16.42          5.515          68.19          9.312         -17.01          46.87          36.56          72.35          17.94          140.9
   0.01293              -12.97          16.41          5.519          68.19          9.308          -17.0          46.85          36.57          72.33          17.96          140.9
   0.01724              -12.97          16.41          5.522          68.18          9.304          -17.0          46.82          36.57          72.32          17.98          140.9
   0.02156              -12.97          16.41          5.526          68.18          9.299          -17.0          46.78          36.58           72.3           18.0          140.9
   0.02587              -12.97           16.4           5.53          68.17          9.294         -16.99          46.75          36.59          72.28          18.02          140.9
   0.03018              -12.97           16.4          5.535          68.17          9.289         -16.99          46.72           36.6          72.26          18.05          140.9
   0.03449              -12.97          16.39           5.54          68.16          9.283         -16.98          46.68          36.61          72.24          18.07          140.9
    0.0388              -12.98          16.39          5.545          68.16          9.277         -16.98          46.64          36.62          72.22           18.1          140.9
   0.04311              -12.98          16.38           5.55          68.15           9.27         -16.97          46.59          36.63          72.19          18.13          140.9
   0.04742              -12.98          16.37          5.556          68.14          9.263         -16.97          46.54          36.64          72.17          18.16          140.9
   0.05173              -12.98          16.37          5.562          68.14          9.256         -16.96          46.49          36.65          72.14           18.2          140.9
   0.05605              -12.98          16.36          5.569          68.13          9.247         -16.95          46.44          36.67          72.11          18.23          140.9
   0.06036              -12.98          16.35          5.576          68.12          9.238         -16.94          46.38          36.68          72.08          18.27          140.9
   0.06467              -12.99          16.35          5.584          68.11          9.228         -16.94          46.31           36.7          72.04          18.32          140.9
   0.06898              -12.99          16.34          5.593           68.1          9.218         -16.93          46.24          36.72           72.0          18.37          140.9
   0.07329              -12.99          16.33          5.602          68.09          9.206         -16.92          46.16          36.74          71.96          18.42          140.9
    0.0776               -13.0          16.32          5.613          68.08          9.194         -16.91          46.08          36.76          71.91          18.47          140.9
   0.08191               -13.0           16.3          5.624          68.06           9.18          -16.9          45.99          36.78          71.86          18.53          140.9
   0.08622               -13.0          16.29          5.636          68.05          9.165         -16.88          45.89           36.8          71.81           18.6          140.8
   0.09053              -13.01          16.28           5.65          68.03          9.148         -16.87          45.78          36.83          71.75          18.68          140.8
   0.09485              -13.01          16.26          5.665          68.01           9.13         -16.85          45.65          36.86          71.68          18.76          140.8
   0.09916              -13.02          16.24          5.682          67.99          9.109         -16.84          45.52           36.9           71.6          18.85          140.8
    0.1035              -13.02          16.23            5.7          67.97          9.087         -16.82          45.37          36.93          71.52          18.95          140.8
    0.1078              -13.03           16.2          5.721          67.95          9.061          -16.8           45.2          36.98          71.43          19.06          140.8
    0.1121              -13.03          16.18          5.744          67.92          9.033         -16.77          45.01          37.02          71.32          19.19          140.8
    0.1164              -13.04          16.15           5.77          67.89          9.001         -16.75           44.8          37.08          71.21          19.33          140.8
    0.1207              -13.05          16.12          5.799          67.86          8.965         -16.72          44.55          37.13          71.07          19.49          140.8
     0.125              -13.06          16.09          5.833          67.82          8.924         -16.68          44.28           37.2          70.92          19.67          140.7
    0.1293              -13.07          16.05          5.871          67.77          8.878         -16.64          43.97          37.28          70.75          19.88          140.7
    0.1336              -13.08           16.0          5.915          67.72          8.824          -16.6          43.61          37.37          70.55          20.12          140.7
     0.138               -13.1          15.95          5.965          67.66          8.762         -16.55           43.2          37.47          70.33           20.4          140.7
    0.1423              -13.12          15.89          6.024          67.59           8.69         -16.49          42.72          37.59          70.06          20.72          140.6
    0.1466              -13.14          15.82          6.093          67.51          8.606         -16.42          42.16          37.73          69.75          21.09          140.6
    0.1509              -13.16          15.73          6.174          67.42          8.507         -16.33           41.5          37.89          69.39          21.53          140.6
    0.1552              -13.19          15.63           6.27           67.3           8.39         -16.23          40.71          38.09          68.96          22.06          140.5
    0.1595              -13.22          15.51          6.386          67.17          8.248         -16.12          39.77          38.32          68.44          22.69          140.4
    0.1638              -13.26          15.37          6.525           67.0          8.078         -15.97          38.63           38.6          67.81          23.45          140.4
    0.1681              -13.31          15.19          6.696           66.8          7.869          -15.8          37.24          38.95          67.04          24.38          140.3
    0.1724              -13.37          14.97          6.907          66.55          7.611         -15.58          35.52          39.38           66.1          25.53          140.2
    0.1768              -13.45           14.7          7.169          66.25           7.29         -15.31          33.37          39.91          64.92          26.96          140.0
    0.1811              -13.54          14.36            7.5          65.86          6.886         -14.98          30.67          40.58          63.43          28.76          139.8
    0.1854              -13.67          13.92          7.921          65.36          6.372         -14.55          27.24          41.43          61.54          31.05          139.6
    0.1897              -13.82          13.36          8.459          64.73          5.713          -14.0          22.85          42.52          59.12          33.99          139.3
     0.194              -14.02          12.65           9.15          63.92          4.869         -13.29          17.21          43.91          56.02          37.75          139.0
    0.1983              -14.28          11.73          10.03          62.88           3.79         -12.39          10.01           45.7          52.05          42.56          138.5
    0.2026               -14.6          10.58          11.14          61.58          2.433         -11.25         0.9505          47.94          47.07          48.61          137.9
    0.2069              -14.99          9.175          12.49          59.99         0.7803         -9.869         -10.09          50.68          40.99          55.98          137.1
    0.2112              -15.45          7.549          14.06          58.15         -1.136         -8.266         -22.88          53.85          33.95          64.52          136.3
    0.2156              -15.94          5.787          15.76          56.15         -3.211          -6.53         -36.73          57.28          26.33          73.77          135.4
    0.2199              -16.43          4.026          17.45          54.16         -5.285         -4.794         -50.58          60.72           18.7          83.02          134.5
    0.2242              -16.89            2.4          19.02          52.31         -7.202         -3.191         -63.37          63.89          11.66          91.56          133.6
    0.2285              -17.28         0.9969          20.37          50.73         -8.855         -1.809         -74.41          66.63          5.582          98.93          132.9
    0.2328               -17.6        -0.1545          21.48          49.42         -10.21        -0.6737         -83.46          68.87          0.597          105.0          132.3
    0.2371              -17.86          -1.07          22.36          48.38         -11.29         0.2288         -90.66          70.66         -3.368          109.8          131.8
    0.2414              -18.06         -1.787          23.06          47.57         -12.13         0.9354          -96.3          72.05         -6.472          113.6          131.4
    0.2457              -18.22         -2.346          23.59          46.94         -12.79          1.486         -100.7          73.14         -8.891          116.5          131.1
      0.25              -18.34         -2.782          24.01          46.44         -13.31          1.916         -104.1          73.99         -10.78          118.8          130.9
    0.2544              -18.44         -3.125          24.34          46.06         -13.71          2.255         -106.8          74.66         -12.27          120.6          130.7
    0.2587              -18.51         -3.398          24.61          45.75         -14.03          2.523         -109.0          75.19         -13.45          122.0          130.6
     0.263              -18.57         -3.617          24.82           45.5         -14.29          2.739         -110.7          75.62         -14.39          123.2          130.5
    0.2673              -18.62         -3.794          24.99           45.3          -14.5          2.913         -112.1          75.97         -15.16          124.1          130.4
    0.2716              -18.66         -3.939          25.13          45.13         -14.67          3.056         -113.2          76.25         -15.79          124.8          130.3
    0.2759               -18.7         -4.058          25.24           45.0         -14.81          3.174         -114.2          76.48         -16.31          125.5          130.3
